# xmcd
#
# Track frame offsets: 
#        150
#        8871
#        18471
#        27940
#        37227
#        48220
#        57429
#        68507
#        79718
#        88113
#        98852
#        112074
#        123265
#        133832
#        145773
#        156455
#        166860
#        177257
#        188490
#        197792
#        210610
#        220687
#        234144
#        246013
#        257998
#
# Disc length: 3578 seconds
#
# Revision: 0
# Processed by: cddbd v1.5.2PL0 Copyright (c) Steve Scherf et al.
# Submitted via: ExactAudioCopy v1.3
#
DISCID=5a0df819
DTITLE=Waylon Jennings - Nashville Rebel_Disc 1 (1958-1969)
DYEAR=2006
DGENRE=Country
TTITLE0=Jole Blon
TTITLE1=My Baby Walks All Over Me
TTITLE2=That's The Chance I'll Have to Take
TTITLE3=Stop The World (And Let Me Off)
TTITLE4=Anita, You're Dreaming
TTITLE5=Time to Burn Again
TTITLE6=(That's What You Get) For Lovin' Me
TTITLE7=Green River
TTITLE8=Nashville Rebel
TTITLE9=Mental Revenge
TTITLE10=Love of The Common People
TTITLE11=The Chokin' Kind
TTITLE12=Walk on Out of My Mind
TTITLE13=I Got You (with Anita Carter)
TTITLE14=Only Daddy That'll Walk The Line
TTITLE15=Yours Love
TTITLE16=Just to Satisfy You
TTITLE17=Something's Wrong In California
TTITLE18=Brown Eyed Handsome Man
TTITLE19=Cedartown, Georgia
TTITLE20=I Ain't The One (with Jessi Colter)
TTITLE21=Singer of Sad Songs
TTITLE22=It's Sure Been Fun (Prev. Unrel. in U.S.)
TTITLE23=Six White Horses
TTITLE24=People in Dallas Got Hair (Prev. Unrel. in U.S.)
EXTD=
EXTT0=
EXTT1=
EXTT2=
EXTT3=
EXTT4=
EXTT5=
EXTT6=
EXTT7=
EXTT8=
EXTT9=
EXTT10=
EXTT11=
EXTT12=
EXTT13=
EXTT14=
EXTT15=
EXTT16=
EXTT17=
EXTT18=
EXTT19=
EXTT20=
EXTT21=
EXTT22=
EXTT23=
EXTT24=
PLAYORDER=
